<?xml version="1.0" encoding="UTF-8" standalone="no"?>
<svg
   xmlns:dc="http://purl.org/dc/elements/1.1/"
   xmlns:cc="http://creativecommons.org/ns#"
   xmlns:rdf="http://www.w3.org/1999/02/22-rdf-syntax-ns#"
   xmlns:svg="http://www.w3.org/2000/svg"
   xmlns="http://www.w3.org/2000/svg"
   xmlns:xlink="http://www.w3.org/1999/xlink"
   version="1.1"
   id="svg2"
   viewBox="0 0 1231.593 547.37569"
   height="6.0819521in"
   width="13.684366in">
  <defs
     id="defs4">
    <linearGradient
       id="linearGradient3432">
      <stop
         id="stop3434"
         offset="0"
         style="stop-color:#685d57;stop-opacity:1;" />
      <stop
         id="stop3436"
         offset="1"
         style="stop-color:#685d57;stop-opacity:0;" />
    </linearGradient>
    <linearGradient
       gradientTransform="matrix(1.7023032,0,0,1.7600504,-8.3204583,273.20772)"
       gradientUnits="userSpaceOnUse"
       y2="248.48082"
       x2="632.95374"
       y1="14.137223"
       x1="145.76938"
       id="linearGradient3438"
       xlink:href="#linearGradient3432" />
  </defs>
  <metadata
     id="metadata7">
    <rdf:RDF>
      <cc:Work
         rdf:about="">
        <dc:format>image/svg+xml</dc:format>
        <dc:type
           rdf:resource="http://purl.org/dc/dcmitype/StillImage" />
        <dc:title></dc:title>
      </cc:Work>
    </rdf:RDF>
  </metadata>
  <g
     transform="translate(-6.950398,-297.85872)"
     id="layer1">
    <path
       id="ellipse3343"
       d="m 629.97007,297.85872 a 266.96529,71.282043 0 0 0 -266.91581,71.01734 213.0907,72.690081 0 0 0 -187.16026,69.36387 474.63847,111.05918 0 0 0 -2.98567,2.73634 107.1473,47.16935 0 0 0 -105.459673,47.14323 107.1473,47.16935 0 0 0 6.207421,15.66857 155.30339,72.33807 0 0 0 -66.70568,59.3089 155.30339,72.33807 0 0 0 64.458109,58.58699 107.1473,47.16935 0 0 0 -3.95985,12.51973 107.1473,47.16935 0 0 0 94.138693,46.77883 474.63847,111.05918 0 0 0 -0.5353,2.50259 474.63847,111.05918 0 0 0 202.00221,90.83509 266.96529,71.282043 0 0 0 266.91581,70.91423 266.96529,71.282043 0 0 0 266.54345,-69.03042 474.63847,111.05918 0 0 0 211.92008,-83.85679 107.1473,47.16935 0 0 0 82.2558,-45.82317 107.1473,47.16935 0 0 0 -16.3082,-24.96383 155.30339,72.33807 0 0 0 64.1622,-58.46325 155.30339,72.33807 0 0 0 -78.143,-62.71211 107.1473,47.16935 0 0 0 21.2589,-28.10581 107.1473,47.16935 0 0 0 -103.3052,-47.0848 474.63847,111.05918 0 0 0 -0.7415,-0.44001 213.0907,72.690081 0 0 0 -180.70677,-55.85066 266.96529,71.282043 0 0 0 -266.93576,-71.04486 z"
       style="fill:url(#linearGradient3438);fill-opacity:1" />
  </g>
  <style
     type="text/css"
     id="style3337">
	.st0{fill:#685D57;}
</style>
</svg>
