<?xml version="1.0" encoding="UTF-8" standalone="no"?>
<svg
   xmlns:dc="http://purl.org/dc/elements/1.1/"
   xmlns:cc="http://creativecommons.org/ns#"
   xmlns:rdf="http://www.w3.org/1999/02/22-rdf-syntax-ns#"
   xmlns:svg="http://www.w3.org/2000/svg"
   xmlns="http://www.w3.org/2000/svg"
   xmlns:xlink="http://www.w3.org/1999/xlink"
   viewBox="0 0 1058.4938 519.55127"
   height="519.55127"
   width="1058.4938"
   xml:space="preserve"
   version="1.1"
   id="svg3336"><metadata
     id="metadata3342"><rdf:RDF><cc:Work
         rdf:about=""><dc:format>image/svg+xml</dc:format><dc:type
           rdf:resource="http://purl.org/dc/dcmitype/StillImage" /><dc:title></dc:title></cc:Work></rdf:RDF></metadata><defs
     id="defs3340"><linearGradient
       id="linearGradient3394"><stop
         id="stop3396"
         offset="0"
         style="stop-color:#685d57;stop-opacity:1;" /><stop
         id="stop3398"
         offset="1"
         style="stop-color:#685d57;stop-opacity:0;" /></linearGradient><clipPath
       id="clipPath3350"
       clipPathUnits="userSpaceOnUse"><path
         id="path3352"
         d="M 0,560 960,560 960,0 0,0 0,560 Z" /></clipPath><linearGradient
       gradientUnits="userSpaceOnUse"
       y2="-153.2166"
       x2="-255.90228"
       y1="76.594727"
       x1="-625.05322"
       id="linearGradient3400"
       xlink:href="#linearGradient3394" /></defs><g
     transform="matrix(1.25,0,0,-1.25,-103.36525,628.97437)"
     id="g3344"><g
       id="g3346"><g
         clip-path="url(#clipPath3350)"
         id="g3348"><g
           transform="translate(929.4872,301.8015)"
           id="g3354"><path
             id="path3356"
             style="fill:url(#linearGradient3400);fill-opacity:1;fill-rule:nonzero;stroke:none"
             d="m 0,0 c 0,20.391 -21.638,38.183 -53.757,47.646 9.136,5.958 14.545,13.344 14.545,21.345 0,19.297 -31.46,35.016 -70.819,35.733 -0.13,0.087 -0.253,0.174 -0.384,0.261 -13.436,22.435 -63.069,39.697 -124.552,42.604 -0.618,29.737 -82.552,53.789 -183.549,53.789 -100.955,0 -182.863,-24.032 -183.547,-53.753 -70.912,-3.194 -126.264,-25.471 -128.897,-52.822 -0.671,-0.693 -1.307,-1.389 -1.912,-2.089 -40.058,-0.338 -72.323,-16.209 -72.323,-35.751 0,-4.178 1.488,-8.185 4.198,-11.912 -27.681,-9.916 -45.798,-26.395 -45.798,-45.051 0,-18.303 17.438,-34.51 44.236,-44.481 -1.707,-3.021 -2.636,-6.199 -2.636,-9.483 0,-18.264 28.182,-33.319 64.567,-35.489 -0.061,-0.668 -0.099,-1.337 -0.099,-2.009 0,-28.529 54.799,-53.747 138.662,-69.012 0.619,-29.738 82.553,-53.789 183.549,-53.789 99.334,0 180.228,23.267 183.451,52.326 81.872,13.949 138.008,37.169 145.997,63.882 32.18,3.826 56.064,17.922 56.064,34.736 0,6.934 -4.074,13.404 -11.105,18.885 C -17.383,-34.459 0,-18.274 0,0" /></g></g></g></g></svg>